{"title":"Earthling 2011 DvDRiP XviD - VISUALiSE","uid":6798275,"size":1234304270,"categoryP":"video","categoryS":"movies","magnet":"?xt=urn:btih:8008153aab3462d0556f87985b87d36d98cb82de&amp;dn=Earthling+2011+DvDRiP+XviD+-+VISUALiSE&amp;tr=udp%3A%2F%2Ftracker.openbittorrent.com%3A80&amp;tr=udp%3A%2F%2Fopen.demonii.com%3A1337&amp;tr=udp%3A%2F%2Ftracker.coppersurfer.tk%3A6969&amp;tr=udp%3A%2F%2Fexodus.desync.com%3A6969","seeders":0,"leechers":1,"uploader":"TvTeam","files":4,"time":1320544734,"description":". \n &lt;a href=&quot;\nhttp://www.torrenting.com&quot; rel=&quot;nofollow&quot; target=&quot;_NEW&quot;&gt;\nhttp://www.torrenting.com&lt;/a&gt;          :     Once &amp; For all ;)\n\n\n               www . Torrenting . Com \n\n(((((((((((((= Enjoy No RAR releases =))))))))))))))))))))\n\n\n...................................NFO:....................................\n\n.[pre]\noooooo     oooo  o8o   .oooooo..o ooooo     ooo       .o.       ooooo         o8o   .oooooo..o oooooooooooo\n`888.     .8'   `&quot;'  d8P'    `Y8 `888'     `8'      .888.      `888'         `&quot;'  d8P'    `Y8 `888'     `8\n `888.   .8'   oooo  Y88bo.       888       8      .8&quot;888.      888         oooo  Y88bo.       888        \n  `888. .8'    `888   `&quot;Y8888o.   888       8     .8' `888.     888         `888   `&quot;Y8888o.   888oooo8    \n   `888.8'      888       `&quot;Y88b  888       8    .88ooo8888.    888          888       `&quot;Y88b  888    &quot;    \n    `888'       888  oo     .d8P  `88.    .8'   .8'     `888.   888       o  888  oo     .d8P  888       o\n     `8'       o888o 8&quot;&quot;88888P'     `YbodP'    o88o     o8888o o888ooooood8 o888o 8&quot;&quot;88888P'  o888ooooood8\n\n\n\n\nTitle: Earthling 2011 DvDRiP XviD - VISUALiSE\nFormat: Xvid\nLanguage: English\nSubtitles: No\nImdb: http://www.imdb.com/title/tt1398999/\n\nPlot:\nAfter a mysterious atmospheric event, a small group of people \nwake up to realize that their entire lives have been a lie. \nThey are in fact aliens disguised as humans. Now they have \nto make a choice. Live amongst men, or try to find a way \nback home\n\nSources:\nVideo: Retail DVDR - Many Thanks :D\nAudio: Retail DVDR - Many Thanks :D\n\nRelease Notes:\nEarthling 2011 DvDRiP XviD - VISUALiSE\nStraight forward rip from the dvdr ran \na few filters etc etc  \n\nenjoy. :P\n\nInfo:\nVideo\nID                               : 0\nFormat                           : MPEG-4 Visual\nCodec ID                         : XVID\nCodec ID/Hint                    : XviD\nDuration                         : 1h 46mn\nBit rate                         : 76.7 Kbps\nWidth                            : 720 pixels\nHeight                           : 402 pixels\nDisplay aspect ratio             : 16:9\nFrame rate                       : 29.970 fps\nColor space                      : YUV\nChroma subsampling               : 4:2:0\nCompression mode                 : Lossy\nBits/(Pixel*Frame)               : 0.009\nStream size                      : 58.2 MiB (5%)\n\nAudio\nID                               : 1\nFormat                           : MPEG Audio\nCodec ID                         : 55\nCodec ID/Hint                    : MP3\nDuration                         : 1h 46mn\nBit rate                         : 128 Kbps\nChannel(s)                       : 2 channels\nSampling rate                    : 48.0 KHz\nCompression mode                 : Lossy\nStream size                      : 97.2 MiB (8%)\nAlignment                        : Aligned on interleaves\n\nScreens:\n[IMG]http://i.imgur.com/SZgB8.png[/IMG]\n\n[IMG]http://i.imgur.com/MmlHR.png[/IMG]\n\n[IMG]http://i.imgur.com/Hjmnh.png[/IMG]\n\n[IMG]http://i.imgur.com/YnecK.png[/IMG]\n\n\nGreetz\nThe Villian and\nThe Select Few .... YOU Know Who YOU Are ;)\nThe Rest Of You ................... SUCK :P\n","torrent":{"xt":"urn:btih:8008153aab3462d0556f87985b87d36d98cb82de","amp;dn":"Earthling+2011+DvDRiP+XviD+-+VISUALiSE","amp;tr":["udp%3A%2F%2Ftracker.openbittorrent.com%3A80","udp%3A%2F%2Fopen.demonii.com%3A1337","udp%3A%2F%2Ftracker.coppersurfer.tk%3A6969","udp%3A%2F%2Fexodus.desync.com%3A6969"],"infoHash":"8008153aab3462d0556f87985b87d36d98cb82de","infoHashBuffer":{"type":"Buffer","data":[128,8,21,58,171,52,98,208,85,111,135,152,91,135,211,109,152,203,130,222]},"announce":[],"urlList":[]}}